<?xml version="1.0" encoding="UTF-8"?>
<svg width="16px" height="16px" viewBox="0 0 16 16" version="1.1" xmlns="http://www.w3.org/2000/svg" xmlns:xlink="http://www.w3.org/1999/xlink">
    <title>Group</title>
    <g id="Page-1" stroke="none" stroke-width="1" fill="none" fill-rule="evenodd">
        <g id="hr-8" transform="translate(-1640.000000, -401.000000)" fill="#0071C2" fill-rule="nonzero">
            <g id="Group-2" transform="translate(0.000000, 267.000000)">
                <g id="Group" transform="translate(1640.800000, 134.000000)">
                    <path d="M4.43728692,11.8394654 C4.73271939,11.8394654 4.97337791,11.6021937 4.97750022,11.30679 L4.97750022,6.96749526 C4.97750022,6.66914369 4.73563849,6.42728196 4.43728692,6.42728196 C4.13893535,6.42728196 3.89707362,6.66914369 3.89707362,6.96749526 L3.89707362,11.30679 C3.90119593,11.6021937 4.14185445,11.8394654 4.43728692,11.8394654 L4.43728692,11.8394654 Z" id="Path"></path>
                    <path d="M7.035336,11.8394654 C7.33076847,11.8394654 7.57142699,11.6021937 7.5755493,11.30679 L7.5755493,6.96749526 C7.5755493,6.66914369 7.33368757,6.42728196 7.035336,6.42728196 C6.73698443,6.42728196 6.4951227,6.66914369 6.4951227,6.96749526 L6.4951227,11.30679 C6.49924501,11.6021937 6.73990353,11.8394654 7.035336,11.8394654 L7.035336,11.8394654 Z" id="Path"></path>
                    <path d="M9.63338508,11.8394654 C9.92881755,11.8394654 10.1694761,11.6021937 10.1735984,11.30679 L10.1735984,6.96749526 C10.1735984,6.66914369 9.93173665,6.42728196 9.63338508,6.42728196 C9.33503351,6.42728196 9.09317178,6.66914369 9.09317178,6.96749526 L9.09317178,11.30679 C9.09729409,11.6021937 9.33795261,11.8394654 9.63338508,11.8394654 L9.63338508,11.8394654 Z" id="Path"></path>
                    <path d="M13.5304587,2.61563742 L10.0730936,2.61563742 L9.62835984,1.12565376 C9.4261361,0.461081669 8.81542777,0.00508612195 8.12078784,1.34114941e-13 L5.95239678,1.34114941e-13 C5.25775685,0.00508612195 4.64704852,0.461081669 4.44482478,1.12565376 L4.00009104,2.61563742 L0.5402133,2.61563742 C0.241861733,2.61563742 -8.43769499e-14,2.85749915 -8.43769499e-14,3.15585072 C-8.43769499e-14,3.45420229 0.241861733,3.69606402 0.5402133,3.69606402 L1.18344402,3.69606402 L1.18344402,14.0957982 C1.1889607,14.9151746 1.85403385,15.5768831 2.67342768,15.578244 L11.4148327,15.578244 C12.2371543,15.5768608 12.9034331,14.910582 12.9048163,14.0882603 L12.9048163,3.67847568 L13.5304587,3.67847568 C13.8288103,3.67847568 14.070672,3.43661395 14.070672,3.13826238 C14.0700534,2.99677179 14.0123645,2.8615176 13.9106729,2.76313683 C13.8089812,2.66475606 13.6718923,2.6115741 13.5304587,2.61563742 Z M5.4900747,1.43470602 C5.55305293,1.23023757 5.73858544,1.0880632 5.95239678,1.0804266 L8.13586356,1.0804266 C8.35542963,1.07857068 8.54855064,1.22521872 8.6057235,1.43721864 L8.95246506,2.61563742 L5.11569432,2.61563742 L5.4900747,1.43470602 Z M11.8243897,14.2063535 L11.7867004,14.2063535 C11.7290731,14.3717073 11.574822,14.4838899 11.3997569,14.4877669 L2.67342768,14.4877669 C2.44560796,14.4836776 2.26268571,14.2985246 2.261358,14.070672 L2.261358,3.67847568 L11.8243897,3.67847568 L11.8243897,14.2063535 Z" id="Shape"></path>
                </g>
            </g>
        </g>
    </g>
</svg>