<?xml version="1.0" encoding="UTF-8"?>
<svg width="20px" height="16px" viewBox="0 0 20 16" version="1.1" xmlns="http://www.w3.org/2000/svg" xmlns:xlink="http://www.w3.org/1999/xlink">
    <title>44A5F849-90CD-4821-81B2-B0598F965128</title>
    <defs>
        <path d="M10,0.5 C12.816502,0.5 15.2822436,1.86040911 17.378781,4.09671573 C18.0990614,4.86501482 18.7245829,5.68537091 19.2547203,6.50622881 C19.5750273,7.00218798 19.7948826,7.39304184 19.9120227,7.627322 C20.0293258,7.86192825 20.0293258,8.13807175 19.9120227,8.372678 C19.7948826,8.60695816 19.5750273,8.99781202 19.2547203,9.49377119 C18.7245829,10.3146291 18.0990614,11.1349852 17.378781,11.9032843 C15.2822436,14.1395909 12.816502,15.5 10,15.5 C7.18349796,15.5 4.71775645,14.1395909 2.621219,11.9032843 C1.90093859,11.1349852 1.27541708,10.3146291 0.745279685,9.49377119 C0.424972717,8.99781202 0.205117422,8.60695816 0.0879773408,8.372678 C-0.0293257803,8.13807175 -0.0293257803,7.86192825 0.0879773408,7.627322 C0.205117422,7.39304184 0.424972717,7.00218798 0.745279685,6.50622881 C1.27541708,5.68537091 1.90093859,4.86501482 2.621219,4.09671573 C4.71775645,1.86040911 7.18349796,0.5 10,0.5 Z M10,2.16666667 C7.71233537,2.16666667 5.64682689,3.30625755 3.83711434,5.23661761 C3.19020724,5.92665184 2.6243225,6.66879576 2.14534531,7.41043786 C2.0093977,7.62093739 1.88882385,7.81864141 1.78392681,8 C1.88882385,8.18135859 2.0093977,8.37906261 2.14534531,8.58956214 C2.6243225,9.33120424 3.19020724,10.0733482 3.83711434,10.7633824 C5.64682689,12.6937424 7.71233537,13.8333333 10,13.8333333 C12.2876646,13.8333333 14.3531731,12.6937424 16.1628857,10.7633824 C16.8097928,10.0733482 17.3756775,9.33120424 17.8546547,8.58956214 C17.9906023,8.37906261 18.1111762,8.18135859 18.2160732,8 C18.1111762,7.81864141 17.9906023,7.62093739 17.8546547,7.41043786 C17.3756775,6.66879576 16.8097928,5.92665184 16.1628857,5.23661761 C14.3531731,3.30625755 12.2876646,2.16666667 10,2.16666667 Z M10,4.66666667 C11.8409492,4.66666667 13.3333333,6.15905083 13.3333333,8 C13.3333333,9.84094917 11.8409492,11.3333333 10,11.3333333 C8.15905083,11.3333333 6.66666667,9.84094917 6.66666667,8 C6.66666667,6.15905083 8.15905083,4.66666667 10,4.66666667 Z M10,6.33333333 C9.07952542,6.33333333 8.33333333,7.07952542 8.33333333,8 C8.33333333,8.92047458 9.07952542,9.66666667 10,9.66666667 C10.9204746,9.66666667 11.6666667,8.92047458 11.6666667,8 C11.6666667,7.07952542 10.9204746,6.33333333 10,6.33333333 Z" id="path-1"></path>
    </defs>
    <g id="Desktop" stroke="none" stroke-width="1" fill="none" fill-rule="evenodd">
        <g id="s-28" transform="translate(-1517.000000, -641.000000)">
            <g id="Group-10" transform="translate(1517.000000, 589.000000)">
                <g id="eye-copy" transform="translate(0.000000, 52.000000)">
                    <mask id="mask-2" fill="white">
                        <use xlink:href="#path-1"></use>
                    </mask>
                    <use id="Combined-Shape" fill="#000000" fill-rule="nonzero" xlink:href="#path-1"></use>
                    <g id="COLOR/-black" mask="url(#mask-2)" fill="#000000">
                        <g transform="translate(0.000000, -2.000000)" id="Rectangle">
                            <rect x="0" y="0" width="20" height="20"></rect>
                        </g>
                    </g>
                </g>
            </g>
        </g>
    </g>
</svg>