<?xml version="1.0" encoding="UTF-8"?>
<svg width="161px" height="57px" viewBox="0 0 161 57" version="1.1" xmlns="http://www.w3.org/2000/svg" xmlns:xlink="http://www.w3.org/1999/xlink">
    <title>50725D18-444C-4383-9A40-0C296F183BB1</title>
    <g id="Desktop" stroke="none" stroke-width="1" fill="none" fill-rule="evenodd">
        <g id="Artboard" transform="translate(-1401.000000, -81.000000)" fill-rule="nonzero">
            <g id="Asset-2" transform="translate(1401.631829, 81.000000)">
                <polygon id="Path" fill="#46484A" points="5.7025641 45.6564577 2.7039627 45.6564577 2.7039627 44.5068748 9.91142191 44.5068748 9.91142191 45.6564577 6.91282051 45.6564577 6.91282051 54.0953995 5.7025641 54.0953995"></polygon>
                <path d="M16.4848485,50.6429363 C16.4848485,48.6984882 17.7230769,47.0809006 19.8004662,47.0809006 C21.9468531,47.0809006 23.0881119,48.6019158 23.0881119,50.4107911 L23.0881119,50.8862244 L17.6689977,50.8862244 C17.7379953,52.2568096 18.5752914,53.1612472 19.8004662,53.1612472 C20.84662,53.1612472 21.5608392,52.6542421 22.0289044,51.7906621 L22.9501166,52.2698097 C22.2041958,53.72211 21.0946387,54.2012643 19.8004662,54.2012643 C17.779021,54.204972 16.4848485,52.6579565 16.4848485,50.6429363 Z M21.8648019,49.8499283 C21.6578089,48.7523459 20.9324009,48.1227681 19.8004662,48.1227681 C18.6685315,48.1227681 17.9841492,48.8080607 17.7491841,49.8499283 L21.8648019,49.8499283 Z" id="Shape" fill="#46484A"></path>
                <path d="M30.1986014,50.6429363 C30.1986014,48.7672032 31.3958042,47.0809006 33.5142191,47.0809006 C34.9445221,47.0809006 35.8806527,47.6974782 36.4438228,48.9863482 L35.4312354,49.4004952 C35.0750583,48.5647726 34.4559441,48.1264825 33.5067599,48.1264825 C32.1305361,48.1264825 31.3734266,49.2222077 31.3734266,50.6466506 C31.3734266,52.0710934 32.1305361,53.1686759 33.5067599,53.1686759 C34.4559441,53.1686759 35.0750583,52.7303858 35.4312354,51.8946631 L36.4363636,52.3050958 C35.8769231,53.5921087 34.9445221,54.2086863 33.5067599,54.2086863 C31.3958042,54.204972 30.1986014,52.5205265 30.1986014,50.6429363 Z" id="Path" fill="#46484A"></path>
                <path d="M43.9664336,44.3954451 L45.1282051,44.3954451 L45.1282051,48.4719145 C45.6931825,47.6322591 46.6311831,47.1167426 47.6456876,47.0883292 C49.1375291,47.0883292 49.7641026,47.9649094 49.7641026,49.3354946 L49.7641026,54.1028281 L48.6079254,54.1028281 L48.6079254,49.5750684 C48.6079254,48.5740584 48.1678322,48.1227681 47.3286713,48.1227681 C46.2414918,48.1227681 45.1282051,49.237065 45.1282051,51.2056562 L45.1282051,54.0953995 L43.972028,54.0953995 L43.9664336,44.3954451 Z" id="Path" fill="#46484A"></path>
                <path d="M57.4191142,47.1904731 L58.5734266,47.1904731 L58.5734266,48.4719145 C59.0675984,47.6391761 59.9559546,47.116899 60.9268065,47.0883292 C62.3701632,47.0883292 63.0452214,47.9649094 63.0452214,49.294637 L63.0452214,54.1028281 L61.8890443,54.1028281 L61.8890443,49.5342109 C61.8890443,48.5740584 61.4340326,48.1227681 60.6097902,48.1227681 C59.5226107,48.1227681 58.5734266,49.3020657 58.5734266,51.3152287 L58.5734266,54.1009709 L57.4191142,54.1009709 L57.4191142,47.1904731 Z" id="Path" fill="#46484A"></path>
                <path d="M70.2918415,50.6429363 C70.2918415,48.7393458 71.586014,47.0809006 73.7044289,47.0809006 C75.8228438,47.0809006 77.1151515,48.7393458 77.1151515,50.6429363 C77.1151515,52.5465268 75.8228438,54.204972 73.7044289,54.204972 C71.586014,54.204972 70.2918415,52.5576698 70.2918415,50.6429363 Z M75.9328671,50.6429363 C75.9328671,49.3150658 75.1216783,48.1227681 73.7044289,48.1227681 C72.2871795,48.1227681 71.4759907,49.3150658 71.4759907,50.6429363 C71.4759907,51.9708067 72.2871795,53.1649616 73.7044289,53.1649616 C75.1216783,53.1649616 75.9328671,51.9726639 75.9328671,50.6429363 Z" id="Shape" fill="#46484A"></path>
                <path d="M85.5048951,51.4935162 L85.5048951,45.5505995 L83.5934732,45.5505995 L83.5934732,44.5105891 L86.6610723,44.5105891 L86.6610723,51.4972305 C86.6610723,52.6338134 87.1701632,53.1686759 88.1174825,53.1686759 C88.9435897,53.1686759 89.5496503,52.6616708 89.7286713,51.4972305 L90.7729604,51.7015183 C90.5249417,53.3729636 89.5347319,54.2086863 88.1174825,54.2086863 C86.5268065,54.204972 85.5048951,53.2336765 85.5048951,51.4935162 Z" id="Path" fill="#46484A"></path>
                <path d="M97.2512821,50.6429363 C97.2512821,48.7393458 98.5435897,47.0809006 100.662005,47.0809006 C102.78042,47.0809006 104.074592,48.7393458 104.074592,50.6429363 C104.074592,52.5465268 102.78042,54.204972 100.662005,54.204972 C98.5435897,54.204972 97.2512821,52.5576698 97.2512821,50.6429363 Z M102.890443,50.6429363 C102.890443,49.3150658 102.079254,48.1227681 100.652681,48.1227681 C99.2261072,48.1227681 98.4242424,49.3150658 98.4242424,50.6429363 C98.4242424,51.9708067 99.2354312,53.1649616 100.652681,53.1649616 C102.06993,53.1649616 102.890443,51.9726639 102.890443,50.6429363 Z" id="Shape" fill="#46484A"></path>
                <path d="M111.019114,54.7268344 C111.009827,54.1473983 111.274295,53.5972492 111.733333,53.2411052 C111.406264,52.9903564 111.221964,52.5969454 111.239161,52.1862375 C111.243125,51.5545236 111.653667,50.9966471 112.257343,50.8026522 C111.965047,50.3907517 111.815165,49.8953648 111.830303,49.3912094 C111.830303,47.9667666 112.88951,47.0753291 114.278788,47.0753291 C114.755974,47.0742445 115.225191,47.1971492 115.640093,47.4319041 L117.085315,46.6890395 L117.607459,47.6343347 L116.438228,48.236055 C116.641812,48.5900987 116.744944,48.9925917 116.736597,49.4004952 C116.736597,50.8397954 115.690443,51.7163756 114.288112,51.7163756 C113.843666,51.7239219 113.404028,51.6238632 113.006993,51.4248013 C112.579953,51.5882315 112.374825,51.8222338 112.374825,52.1360941 C112.374825,52.5335267 112.773893,52.7118142 113.350117,52.7118142 L115.15338,52.7118142 C116.645221,52.7118142 117.478788,53.3692493 117.478788,54.6172618 C117.478788,56.3574221 115.81352,57 114.232168,57 C112.242424,57 111.019114,56.2329923 111.019114,54.7268344 Z M116.287179,54.7268344 C116.287179,53.9579695 115.847086,53.6979669 115.117949,53.6979669 L113.480653,53.6979669 C113.241438,53.7014216 113.002398,53.6833961 112.766434,53.6441092 C112.373348,53.8369011 112.138285,54.249152 112.173427,54.6841196 C112.173427,55.493842 112.98648,55.9841381 114.224709,55.9841381 C115.544988,55.9859898 116.287179,55.5068422 116.287179,54.7268344 Z M115.599068,49.4004952 C115.599068,48.5369152 115.007925,48.0707676 114.278788,48.0707676 C113.541378,48.0707676 112.94359,48.666107 112.94359,49.4004952 C112.94359,50.1348835 113.541378,50.7302229 114.278788,50.7302229 C115.007925,50.7265085 115.599068,50.260361 115.599068,49.4004952 Z" id="Shape" fill="#46484A"></path>
                <path d="M124.568765,53.0813893 L126.961305,53.0813893 L126.961305,48.2044833 L124.84289,48.2044833 L124.84289,47.1904731 L128.111888,47.1904731 L128.111888,53.0813893 L130.670396,53.0813893 L130.670396,54.0953995 L124.568765,54.0953995 L124.568765,53.0813893 Z M126.508159,45.3555975 C126.508159,44.8335254 126.933123,44.4103024 127.457343,44.4103024 C127.981563,44.4103024 128.406527,44.8335254 128.406527,45.3555975 C128.406527,45.8776697 127.981563,46.3008927 127.457343,46.3008927 C126.933123,46.3008927 126.508159,45.8776697 126.508159,45.3555975 Z" id="Shape" fill="#46484A"></path>
                <path d="M137.797669,50.6429363 C137.797669,48.6984882 139.035897,47.0809006 141.113287,47.0809006 C143.259674,47.0809006 144.400932,48.6019158 144.400932,50.4107911 L144.400932,50.8862244 L138.981818,50.8862244 C139.050816,52.2568096 139.889977,53.1612472 141.113287,53.1612472 C142.159441,53.1612472 142.87366,52.6542421 143.341725,51.7906621 L144.262937,52.2698097 C143.507692,53.72211 142.398135,54.2012643 141.113287,54.2012643 C139.091841,54.204972 137.797669,52.6579565 137.797669,50.6429363 Z M143.177622,49.8499283 C142.970629,48.7523459 142.245221,48.1227681 141.113287,48.1227681 C139.981352,48.1227681 139.29697,48.8080607 139.062005,49.8499283 L143.177622,49.8499283 Z" id="Shape" fill="#46484A"></path>
                <path d="M151.731469,52.2048091 L152.831702,51.7943764 C153.07972,52.6858139 153.795804,53.1649616 154.744988,53.1649616 C155.597203,53.1649616 156.216317,52.836244 156.216317,52.1788088 C156.216317,51.5213736 155.707226,51.3282289 154.427972,51.0812264 C153.271795,50.8620813 152.19021,50.4386485 152.19021,49.0810635 C152.19021,47.8479082 153.275524,47.0809006 154.554779,47.0809006 C155.834033,47.0809006 156.606061,47.6027629 157.128205,48.6167731 L156.175291,49.2147791 C155.748252,48.4477714 155.254079,48.1190538 154.510023,48.1190538 C153.918881,48.1190538 153.312821,48.3660563 153.312821,49.0364916 C153.312821,49.6270689 153.890909,49.9000717 154.922145,50.1062166 C156.216317,50.3662192 157.41352,50.7357943 157.41352,52.0785221 C157.41352,53.4212498 156.175291,54.2012727 154.744988,54.2012727 C153.355711,54.204972 152.167832,53.5196794 151.731469,52.2048091 Z" id="Path" fill="#46484A"></path>
                <polygon id="Path" fill="#34AB53" points="81.0983683 21.3740714 81.0983683 21.9980777 81.0983683 27.0978431 86.2172494 21.9980777 100.121212 21.9980777 100.121212 16.5863091 81.0983683 16.5863091"></polygon>
                <rect id="Rectangle" fill="#34AB53" x="81.0983683" y="7.12407142" width="19.0228438" height="5.4136257"></rect>
                <path d="M3.23729604,26.4831226 C1.23076923,25.0023459 0.151670552,22.8851818 0,20.1316304 L7.95710956,20.1316304 C8.03294483,21.0676398 8.31204351,21.748599 8.79440559,22.174508 C9.31169343,22.6166473 9.97810906,22.8469461 10.6592075,22.818943 C11.2657515,22.842743 11.8627332,22.6628779 12.3543124,22.3082236 C12.795736,21.9704002 13.0441645,21.4395415 13.0200466,20.885638 C13.0200466,20.1019158 12.6520591,19.4952431 11.9160839,19.0656197 C11.1801088,18.6359964 9.98663559,18.1556106 8.33566434,17.6244624 C6.88636717,17.1642375 5.47176613,16.6019567 4.1025641,15.9418741 C2.98888555,15.3737065 2.02154367,14.5577579 1.27552448,13.5572788 C0.474902875,12.5061254 0.0752136752,11.133064 0.0764568765,9.43809462 C0.0764568765,7.72083931 0.507847708,6.2462531 1.37062937,5.01433598 C2.268957,3.76167658 3.51167044,2.79428066 4.94918415,2.22859377 C6.59554548,1.57548777 8.35583583,1.25479504 10.1277389,1.28515574 C13.2494172,1.28515574 15.7432789,2.01192493 17.609324,3.46546331 C19.4753691,4.91900169 20.4699301,6.96187932 20.593007,9.59409618 L12.4941725,9.59409618 C12.4680653,8.78437378 12.219425,8.17770103 11.7482517,7.77407794 C11.2412853,7.356142 10.5969595,7.13982107 9.93939394,7.16678613 C9.43562413,7.14699328 8.94394646,7.32353852 8.56876457,7.65893392 C8.21320901,7.98827056 8.03543124,8.45627525 8.03543124,9.062948 C8.03460834,9.56099477 8.25016842,10.0350447 8.62657343,10.362961 C9.05947312,10.7573559 9.55468909,11.0779902 10.0923077,11.3119705 C10.6766123,11.5781637 11.5393939,11.9130718 12.6806527,12.3166949 C14.1227999,12.7903458 15.5287765,13.3669418 16.8876457,14.0419979 C18.0038347,14.6204838 18.9790387,15.4357411 19.7445221,16.4303076 C20.5426573,17.4542226 20.9423465,18.7499023 20.9435897,20.3173465 C20.9653044,21.8305431 20.5490305,23.3179604 19.7445221,24.6018181 C18.8971365,25.9071535 17.6949462,26.9459851 16.2778555,27.5974195 C14.767366,28.3303793 12.9846154,28.6968653 10.9296037,28.6968653 C7.80668221,28.6993353 5.24257964,27.9614232 3.23729604,26.4831226 Z" id="Path" fill="#46484A"></path>
                <path d="M24.386014,12.0158347 C25.1853924,10.374104 26.2769231,9.11061514 27.6606061,8.22536817 C29.0390347,7.34126563 30.6477214,6.8795573 32.2871795,6.89749772 C33.7591298,6.89749772 35.0284382,7.18845302 36.0951049,7.77036361 C37.1200701,8.31350253 37.9759415,9.12604319 38.569697,10.1196729 L38.569697,7.16307181 L46.0289044,7.16307181 L46.0289044,28.4349993 L38.569697,28.4349993 L38.569697,25.4783983 C37.9722178,26.4767512 37.1085357,27.2906089 36.0745921,27.8295647 C34.9056709,28.4322418 33.6030851,28.7318035 32.2871795,28.7005734 C30.6480445,28.7180857 29.03965,28.2571068 27.6606061,27.3745601 C26.2769231,26.4880751 25.1853924,25.2177766 24.386014,23.5636648 C23.5866356,21.909553 23.1869464,19.9818194 23.1869464,17.780464 C23.1869464,15.584061 23.5866356,13.6625179 24.386014,12.0158347 Z M37.439627,14.5564316 C36.71493,13.808432 35.717096,13.3843901 34.6734055,13.3808697 C33.629715,13.377393 32.6290373,13.7947358 31.8993007,14.53786 C31.1633256,15.3104392 30.795338,16.3913072 30.795338,17.780464 C30.795338,19.1423824 31.1633256,20.2232504 31.8993007,21.0230679 C32.6057935,21.806323 33.6209597,22.2426166 34.6778555,22.2172227 C35.7247736,22.2361155 36.7298442,21.8082944 37.439627,21.0416395 C38.1855478,20.2579174 38.5585082,19.1708589 38.5585082,17.780464 C38.5659674,16.4160693 38.1954934,15.3413919 37.4470862,14.5564316 L37.439627,14.5564316 Z" id="Shape" fill="#46484A"></path>
                <polygon id="Path" fill="#46484A" points="73.2867133 7.16307181 59.7389277 38.5602437 51.6289044 38.5602437 56.7310023 27.5249902 47.9664336 7.16307181 56.2666667 7.16307181 60.7589744 19.2216213 65.1002331 7.16307181"></polygon>
                <path d="M128.874592,1.68815978 C130.93198,2.75350607 132.632549,4.39353684 133.767832,6.40720709 C134.909091,8.4315131 135.47972,10.7449172 135.47972,13.3474195 C135.47972,15.9251597 134.902875,18.2255637 133.749184,20.2486316 C132.59797,22.2663592 130.894445,23.9165301 128.837296,25.0066793 C126.717638,26.1581194 124.261694,26.7332204 121.469464,26.7319843 L110.840093,26.7319843 L110.840093,0 L121.469464,0 C124.281585,0 126.749961,0.562719927 128.874592,1.68815978 Z M126.038228,18.3858986 C127.28143,17.1997915 127.90303,15.5190603 127.90303,13.3437052 C127.90303,11.144826 127.28143,9.44490421 126.038228,8.24393979 C124.795027,7.04297537 123.081896,6.44249316 120.898834,6.44249316 L118.308625,6.44249316 L118.308625,20.1687813 L120.898834,20.1687813 C123.080653,20.1712498 124.793784,19.5769582 126.038228,18.3858986 Z" id="Shape" fill="#46484A"></path>
                <path d="M143.030303,25.6715431 C141.368385,24.8104485 139.987805,23.4947999 139.050816,21.8792193 C138.086092,20.2350124 137.60373,18.3010882 137.60373,16.0774469 C137.60373,13.8785677 138.092929,11.9595008 139.071329,10.3202463 C140.017279,8.70627981 141.402823,7.39208964 143.067599,6.52977975 C144.760839,5.64329467 146.675369,5.20005213 148.811189,5.20005213 C150.947009,5.20005213 152.857187,5.64267562 154.541725,6.52792259 C156.206651,7.39069751 157.592681,8.70473559 158.53986,10.3183892 C159.513287,11.9576437 160,13.8773296 160,16.0774469 C160,18.2775642 159.511422,20.2052978 158.534266,21.8606477 C157.587628,23.4864211 156.193912,24.8086997 154.517483,25.6715431 C152.738381,26.5739571 150.76461,27.029195 148.768298,26.9975564 C146.634965,26.9975564 144.7223,26.5555519 143.030303,25.6715431 Z M151.367832,19.3943373 C152.067754,18.6229962 152.417094,17.5173661 152.415854,16.0774469 C152.414608,14.6375277 152.065268,13.5380881 151.367832,12.7791281 C150.723785,12.0455707 149.789563,11.6295735 148.811189,11.6406881 C147.833281,11.6240787 146.898554,12.0412131 146.26014,12.7791281 C145.576379,13.53685 145.233877,14.6362896 145.232634,16.0774469 C145.232634,17.5433663 145.562704,18.6576632 146.222844,19.4203375 C146.855402,20.1658273 147.794239,20.5841123 148.773893,20.5569204 C149.77142,20.5736623 150.724731,20.1476207 151.375291,19.3943373 L151.367832,19.3943373 Z" id="Shape" fill="#46484A"></path>
            </g>
        </g>
    </g>
</svg>