<?xml version="1.0" encoding="UTF-8"?>
<svg width="23px" height="22px" viewBox="0 0 23 22" version="1.1" xmlns="http://www.w3.org/2000/svg" xmlns:xlink="http://www.w3.org/1999/xlink">
    <title>bell</title>
    <defs>
        <path d="M18,14 L18,9 C18,5.68629145 15.3137085,3 12,3 C8.68629154,3 6.00000005,5.68629145 6,9 L6,14 C6,14.7285742 5.80521143,15.4116532 5.46487122,16 L18.5351288,16 C18.1947886,15.4116532 18,14.7285742 18,14 Z M22,18 L2,18 C0.666666667,18 0.666666667,16 2,16 C3.1045695,16 4,15.1045694 4,14 L4,9 C4,4.58172193 7.58172205,1 12,1 C16.418278,1 20,4.58172193 20,9 L20,14 C20,15.1045694 20.8954305,16 22,16 C23.3333333,16 23.3333333,18 22,18 Z M14.595,21.5017718 C14.0583034,22.4269783 13.0696029,22.9964562 12,22.9964562 C10.9303971,22.9964562 9.94169664,22.4269783 9.405,21.5017718 C9.01827917,20.8351072 9.49928951,19.9999999 10.27,19.9999999 L13.73,19.9999999 C14.5007105,19.9999999 14.9817208,20.8351072 14.595,21.5017718 Z" id="path-1"></path>
    </defs>
    <g id="Desktop" stroke="none" stroke-width="1" fill="none" fill-rule="evenodd">
        <g id="s-21" transform="translate(-1524.000000, -55.000000)">
            <g id="Group" transform="translate(1523.130988, 54.000000)">
                <mask id="mask-2" fill="white">
                    <use xlink:href="#path-1"></use>
                </mask>
                <use id="Shape" fill="#000000" fill-rule="nonzero" xlink:href="#path-1"></use>
                <g mask="url(#mask-2)" fill="#000000" id="COLOR/-black">
                    <g>
                        <rect id="Rectangle" x="0" y="0" width="24" height="24"></rect>
                    </g>
                </g>
            </g>
        </g>
    </g>
</svg>