<?xml version="1.0" encoding="UTF-8"?>
<svg width="21px" height="20px" viewBox="0 0 21 20" version="1.1" xmlns="http://www.w3.org/2000/svg" xmlns:xlink="http://www.w3.org/1999/xlink">
    <title>C8044C1D-E28A-4E30-947A-43E693548E15</title>
    <defs>
        <filter id="filter-1">
            <feColorMatrix in="SourceGraphic" type="matrix" values="0 0 0 0 0.272818 0 0 0 0 0.281623 0 0 0 0 0.290272 0 0 0 1.000000 0"></feColorMatrix>
        </filter>
        <path d="M7.75,0.666666667 C11.662017,0.666666667 14.8333333,3.83798302 14.8333333,7.75 C14.8333333,9.40559296 14.2653374,10.9285234 13.3135816,12.134555 L17.0892557,15.9107443 C17.4146926,16.2361813 17.4146926,16.7638187 17.0892557,17.0892557 C16.7638187,17.4146926 16.2361813,17.4146926 15.9107443,17.0892557 L15.9107443,17.0892557 L12.134555,13.3135816 C10.9285234,14.2653374 9.40559296,14.8333333 7.75,14.8333333 C3.83798302,14.8333333 0.666666667,11.662017 0.666666667,7.75 C0.666666667,3.83798302 3.83798302,0.666666667 7.75,0.666666667 Z M7.75,2.33333333 C4.75845761,2.33333333 2.33333333,4.75845761 2.33333333,7.75 C2.33333333,10.7415424 4.75845761,13.1666667 7.75,13.1666667 C9.22867813,13.1666667 10.5689696,12.5741631 11.5464108,11.6136197 L11.577411,11.577411 C11.5887635,11.5660586 11.600362,11.5551021 11.6121894,11.5445417 C12.5741631,10.5689696 13.1666667,9.22867813 13.1666667,7.75 C13.1666667,4.75845761 10.7415424,2.33333333 7.75,2.33333333 Z" id="path-2"></path>
    </defs>
    <g id="Desktop" stroke="none" stroke-width="1" fill="none" fill-rule="evenodd">
        <g id="task1-13" transform="translate(-1573.000000, -56.000000)">
            <rect fill="#FFFFFF" x="0" y="0" width="1920" height="1040"></rect>
            <rect id="Rectangle" fill="#E9E8F1" x="1563" y="46" width="40" height="40" rx="20"></rect>
            <g filter="url(#filter-1)" id="search">
                <g transform="translate(1574.772727, 57.000000)">
                    <mask id="mask-3" fill="white">
                        <use xlink:href="#path-2"></use>
                    </mask>
                    <use id="Combined-Shape" fill="#000000" fill-rule="nonzero" xlink:href="#path-2"></use>
                    <g id="COLOR/-black" mask="url(#mask-3)" fill="#000000">
                        <g transform="translate(-1.000000, -1.000000)" id="Rectangle">
                            <rect x="0" y="0" width="20" height="20"></rect>
                        </g>
                    </g>
                </g>
            </g>
        </g>
    </g>
</svg>